{"glyphs":{"0":{"ha":1012,"x_min":5,"x_max":1003,"o":"m 554 1253 q 341 1161 419 1211 q 179 1212 261 1214 q 108 1151 143 1173 l 98 1121 l 98 1050 q 77 796 74 893 q 7 370 -6 562 q 87 431 72 382 q 361 45 167 175 q 1000 452 832 -144 q 554 1253 1040 1187 m 554 999 q 737 745 716 954 q 463 279 781 141 q 321 796 269 512 q 554 999 366 977 z "},"1":{"ha":962,"x_min":5,"x_max":953,"o":"m 625 1256 q 497 1219 570 1200 l 461 1201 q 443 1183 452 1185 l 406 1165 l 379 1156 l 361 1137 l 188 1055 l 142 1065 q 78 909 85 984 q 224 828 153 848 l 242 837 l 270 846 q 415 909 355 890 l 406 855 l 406 828 l 388 755 l 379 728 l 379 700 q 342 454 335 559 l 334 436 q 306 290 328 351 l 270 290 l 242 299 l 215 299 l 69 317 q 14 117 -17 226 q 224 62 121 68 q 224 26 221 39 q 379 17 320 31 l 415 17 l 570 7 l 607 7 l 634 -1 l 661 -1 l 698 -1 l 725 -1 l 907 -1 q 953 81 929 50 l 944 99 l 916 99 l 898 108 l 817 144 q 507 254 666 246 l 515 299 l 534 345 l 543 399 l 552 445 q 579 572 563 522 l 589 627 q 616 746 611 696 l 625 800 l 634 828 l 634 855 l 643 873 l 643 909 q 652 983 652 953 q 698 1156 697 1074 q 625 1256 665 1218 z "},"2":{"ha":1061,"x_min":0,"x_max":1025,"o":"m 353 1252 q 256 1225 300 1231 l 230 1173 l 212 1164 l 203 1146 q 44 978 95 1075 q 230 854 102 852 q 389 1004 300 960 q 539 651 511 836 q 460 351 544 475 q 0 209 113 541 q 495 59 208 -37 q 999 50 762 -52 l 1025 138 l 999 147 l 972 147 q 902 174 930 168 l 875 182 l 848 191 l 822 191 l 804 200 l 663 235 q 504 1225 903 777 q 353 1252 420 1256 z "},"3":{"ha":844,"x_min":8,"x_max":822,"o":"m 345 1253 q 61 978 127 1179 q 363 1023 242 904 l 452 1023 q 203 819 545 847 l 221 854 q 61 747 120 817 q 88 579 12 645 l 115 579 q 256 570 198 563 q 593 543 445 612 q 487 339 570 417 q 452 339 421 272 l 434 321 l 380 286 l 354 277 l 274 242 l 248 242 l 61 153 q 8 47 33 87 l 43 11 q 691 233 452 -48 q 665 801 966 557 q 612 1236 779 1056 l 585 1253 l 549 1227 l 532 1236 l 505 1236 l 434 1253 l 345 1253 z "},"4":{"ha":922,"x_min":2,"x_max":909,"o":"m 162 1256 q 91 1160 109 1213 l 98 1129 l 91 1113 l 83 978 q 75 804 66 871 q 83 684 70 738 q 3 478 -5 591 l 19 454 q 170 398 111 443 q 297 446 248 399 l 329 446 l 353 438 l 376 438 l 504 430 l 504 351 l 519 335 l 519 311 q 543 176 544 234 l 543 152 q 567 1 570 65 l 583 9 l 654 81 q 686 168 666 134 l 686 192 q 726 414 733 307 q 909 565 852 460 q 734 621 867 629 l 734 669 l 742 708 l 742 811 l 742 843 q 750 978 753 926 l 750 1002 l 758 1097 q 703 1160 732 1138 q 551 1097 610 1155 q 543 1010 553 1050 l 536 637 l 472 637 q 290 661 363 639 q 281 883 260 783 l 281 907 l 281 930 l 281 954 l 290 1018 l 290 1042 l 290 1065 q 305 1185 307 1127 q 162 1256 241 1255 z "},"5":{"ha":709,"x_min":7,"x_max":708,"o":"m 191 1256 q 55 791 43 1033 q 23 640 5 720 q 39 623 37 631 l 95 551 q 207 583 170 541 l 263 591 q 495 271 516 469 q 95 311 325 168 q 7 271 54 279 q 640 135 250 -188 q 647 527 774 342 q 263 816 505 757 l 263 840 l 271 968 q 583 896 427 1000 q 687 1024 659 958 q 663 1112 688 1076 l 567 1128 q 303 1192 417 1188 q 191 1256 263 1259 z "},"6":{"ha":997,"x_min":-1,"x_max":921,"o":"m 445 1249 q 50 405 -36 1084 q 22 216 -35 325 q 130 208 77 173 q 553 9 311 5 q 921 279 833 35 q 274 540 885 676 q 688 917 268 1203 q 768 935 734 916 l 777 962 q 813 1088 805 1034 q 454 1249 654 1254 l 445 1249 l 454 1249 l 445 1249 m 472 360 q 696 333 603 371 q 373 315 555 146 q 472 360 353 353 z "},"7":{"ha":891,"x_min":3,"x_max":878,"o":"m 581 1202 l 553 1202 l 517 1211 l 418 1211 l 399 1220 l 300 1220 l 264 1229 l 201 1229 l 37 1247 l 20 1220 q 10 1012 -9 1107 l 74 1012 l 110 1002 q 210 994 164 1005 l 245 994 l 309 994 l 472 975 l 454 912 l 427 876 l 418 840 l 399 804 l 381 777 q 327 659 361 704 l 309 623 l 300 577 l 282 550 l 273 523 l 255 496 l 245 460 l 228 423 l 191 351 q 137 188 172 250 q 119 7 119 83 q 237 7 186 -15 l 255 34 l 309 106 l 318 125 l 345 188 l 427 306 l 435 342 l 454 378 l 508 477 l 517 505 l 526 532 l 545 577 l 589 650 l 599 686 l 608 713 l 626 740 l 716 939 q 825 921 769 909 q 608 1256 1000 1226 l 581 1202 z "},"8":{"ha":779,"x_min":8,"x_max":760,"o":"m 470 1214 q 164 1076 275 1206 q 286 648 87 810 q 126 68 -172 380 l 202 45 q 760 220 647 -98 q 615 679 766 496 q 707 1076 797 884 q 493 1260 690 1278 l 470 1214 m 409 1015 q 585 924 542 1036 q 515 786 606 818 q 355 870 401 764 q 409 1015 293 981 m 447 564 q 562 228 589 425 q 447 564 -74 143 z "},"9":{"ha":722,"x_min":4,"x_max":707,"o":"m 267 1256 q 5 946 38 1174 q 397 604 -16 491 l 389 538 l 380 514 q 356 408 372 451 l 356 368 q 332 123 326 222 l 348 58 l 380 1 l 429 41 q 494 147 457 108 q 536 262 512 216 l 544 294 l 552 319 l 576 408 l 576 433 l 593 498 l 593 530 l 601 547 l 617 669 l 625 686 q 707 922 648 828 q 674 970 705 962 l 674 1027 q 682 1109 687 1074 q 666 1126 668 1118 l 633 1134 q 494 1183 554 1168 q 267 1256 382 1257 m 275 1044 q 446 897 455 1036 q 364 816 433 819 q 218 800 288 779 q 275 1044 204 940 z "}," ":{"ha":264,"x_min":0,"x_max":0,"o":""},"!":{"ha":346,"x_min":2,"x_max":339,"o":"m 66 1256 q 2 1112 22 1176 l 50 1000 l 50 936 l 66 856 l 98 583 q 114 327 130 433 q 338 343 241 212 q 338 711 312 557 l 322 823 l 290 951 q 210 1208 227 1103 l 66 1256 m 162 231 q 114 7 91 121 q 162 231 540 63 z "},"\"":{"ha":553,"x_min":8,"x_max":564,"o":"m 188 1261 q 9 1207 85 1219 q 27 956 6 1062 q 224 939 109 814 q 206 1261 279 1114 l 188 1261 l 206 1261 l 188 1261 m 367 1243 q 457 813 268 979 q 564 939 500 899 l 564 1225 q 367 1243 455 1249 z "},"#":{"ha":1190,"x_min":8,"x_max":1199,"o":"m 471 1241 q 190 993 380 939 l 140 926 q 355 745 172 736 l 339 595 q 8 530 67 710 q 306 380 125 365 q 256 149 293 246 q 355 66 323 119 q 537 347 534 128 q 703 331 632 345 q 785 0 640 118 q 901 99 837 77 l 918 215 l 918 298 l 1000 281 q 951 513 1171 477 l 968 662 q 1199 728 1158 547 q 1034 861 1165 863 l 1050 943 q 968 1076 1067 1049 q 802 894 833 1106 l 587 926 q 471 1241 589 1119 m 753 678 q 620 563 758 524 q 570 711 527 602 l 753 678 z "},"$":{"ha":709,"x_min":9,"x_max":714,"o":"m 423 1240 q 363 1107 376 1166 q 172 1092 254 1113 l 68 959 q 245 648 86 752 q 68 427 269 375 l 9 353 q 157 205 34 219 q 260 -2 125 39 q 363 176 359 64 l 437 176 q 482 722 876 391 l 497 811 q 541 1033 909 732 q 556 1181 564 1118 q 423 1240 482 1221 m 351 945 q 245 945 283 692 l 351 945 m 423 530 q 423 353 506 431 q 423 530 292 366 z "},"%":{"ha":920,"x_min":9,"x_max":916,"o":"m 45 1219 q 405 753 -108 600 q 330 618 373 664 l 315 573 l 285 513 l 270 483 l 90 168 l 90 123 l 120 3 q 405 333 349 76 q 630 18 462 115 q 916 303 916 31 q 541 543 821 597 q 600 648 567 604 q 810 979 690 852 q 781 1128 781 1065 q 480 873 579 1057 q 120 1249 396 1181 l 45 1219 m 675 387 q 575 254 858 168 l 675 387 m 236 1031 q 148 914 397 838 l 236 1031 z "},"&":{"ha":892,"x_min":7,"x_max":894,"o":"m 423 1263 q 222 1132 286 1234 l 254 1101 l 261 1085 q 315 653 220 860 l 292 630 l 269 607 l 254 584 l 238 568 q 146 445 177 497 l 123 429 q 7 267 68 326 l 14 105 l 53 67 q 115 20 95 48 q 670 152 450 -59 q 724 82 713 126 q 848 283 968 79 l 894 306 q 878 422 867 368 q 809 476 829 432 l 755 460 l 709 429 l 678 484 l 663 491 l 654 514 l 640 522 l 631 538 q 562 646 585 600 q 848 1039 767 814 q 423 1263 663 1242 m 462 1039 q 555 985 544 1052 q 462 823 595 886 q 462 1039 426 943 m 400 460 q 477 376 450 419 q 555 298 545 362 q 400 460 26 0 z "},"'":{"ha":251,"x_min":5,"x_max":250,"o":"m 18 1195 q 139 804 -35 916 q 94 1255 381 1182 l 18 1195 z "},"(":{"ha":407,"x_min":3,"x_max":410,"o":"m 275 1255 q 22 479 -68 910 q 208 8 15 194 l 326 8 q 376 176 368 105 q 309 227 354 250 q 410 1069 94 736 q 275 1255 383 1204 z "},")":{"ha":441,"x_min":6,"x_max":439,"o":"m 178 1258 q 75 1154 106 1204 q 6 205 340 611 q 6 50 18 114 q 110 16 35 -34 q 299 1241 655 461 l 178 1258 z "},"*":{"ha":481,"x_min":2,"x_max":484,"o":"m 243 1255 q 115 1241 194 1181 q 115 1114 92 1167 q 2 1015 26 1091 l 45 1015 l 158 1015 q 73 831 48 926 q 186 901 159 832 q 243 774 237 841 q 313 887 303 825 q 413 817 382 852 l 455 887 q 484 1057 406 973 l 370 1085 q 399 1213 408 1152 q 300 1142 341 1192 q 243 1255 300 1223 z "},"+":{"ha":854,"x_min":5,"x_max":852,"o":"m 413 1109 q 329 673 250 940 q 5 519 77 726 q 104 449 61 495 q 357 491 241 496 q 526 168 395 134 q 568 491 628 297 l 624 505 q 694 716 1042 585 l 511 716 q 413 1109 562 1002 z "},",":{"ha":248,"x_min":1,"x_max":245,"o":"m 1 275 q 45 157 18 201 q 45 -168 20 -37 q 149 364 387 28 l 90 364 l 1 275 z "},"-":{"ha":695,"x_min":15,"x_max":699,"o":"m 624 821 q 401 781 503 745 q 73 762 227 703 q 427 485 -139 369 q 624 505 532 525 q 624 821 774 716 z "},".":{"ha":319,"x_min":10,"x_max":322,"o":"m 46 281 q 46 4 -25 131 q 322 142 252 -11 q 46 281 216 296 m 46 281 q 46 4 -25 131 q 322 142 252 -11 q 46 281 216 296 m 46 281 q 46 4 -25 131 q 322 142 252 -11 q 46 281 216 296 z "},"/":{"ha":1021,"x_min":5,"x_max":1025,"o":"m 803 1271 l 766 1234 q 635 1104 699 1149 q 562 1011 603 1043 q 264 622 433 755 l 227 511 l 209 473 l 172 436 q 5 140 104 257 l 60 -46 l 246 9 q 617 622 408 401 q 970 1085 764 919 l 970 1141 q 1025 1308 1011 1238 q 821 1326 912 1333 l 803 1271 z "},":":{"ha":356,"x_min":4,"x_max":349,"o":"m 60 1168 q 16 859 -16 989 q 214 1168 456 857 l 60 1168 m 60 463 q 16 154 -21 292 q 60 463 660 273 z "},";":{"ha":342,"x_min":3,"x_max":336,"o":"m 6 1117 q 336 963 -20 649 q 160 1161 267 1101 l 6 1117 m 36 324 l 100 138 q 115 -168 64 -38 q 307 121 330 -105 q 100 409 311 375 l 36 324 z "},"<":{"ha":681,"x_min":0,"x_max":680,"o":"m 492 1100 q 347 956 419 1004 q 29 695 205 768 q 0 507 1 587 q 130 477 72 478 q 159 449 155 463 l 203 420 q 231 391 227 406 l 318 333 l 391 260 l 579 159 q 680 232 649 174 l 637 319 l 521 406 l 507 434 l 290 593 q 637 956 435 832 q 492 1100 591 1074 z "},"=":{"ha":719,"x_min":6,"x_max":702,"o":"m 64 933 q 9 795 37 847 q 134 740 79 759 l 189 726 l 258 726 l 286 740 l 382 740 l 437 740 l 478 740 l 519 740 q 685 754 612 760 q 699 933 710 854 l 547 933 l 478 933 l 437 933 l 382 933 l 340 933 l 64 933 m 120 561 q 23 409 -37 485 q 286 354 160 344 l 327 368 l 368 368 l 410 368 q 685 382 572 361 q 685 561 711 484 l 644 561 l 602 561 l 534 561 l 492 561 l 437 561 l 395 561 l 120 561 z "},">":{"ha":616,"x_min":4,"x_max":616,"o":"m 121 1088 q 4 958 14 1052 l 47 928 l 77 913 l 92 884 l 121 870 l 368 681 q 267 535 316 581 l 237 520 l 222 492 l 193 448 l 164 418 q 33 288 79 349 l 47 186 l 179 171 q 281 258 228 230 l 353 331 q 587 578 457 494 q 616 783 620 700 q 296 987 408 852 q 121 1088 199 1052 z "},"?":{"ha":688,"x_min":5,"x_max":693,"o":"m 485 1232 q 5 960 186 1181 q 197 832 55 817 q 405 880 433 1153 q 245 479 269 671 l 229 479 l 245 479 l 229 479 q 341 368 283 401 l 437 399 q 453 608 466 517 q 661 992 633 779 q 501 1264 774 1202 l 485 1232 m 399 281 q 231 188 315 215 q 456 0 266 -35 q 475 281 527 144 l 399 281 z "},"@":{"ha":1207,"x_min":9,"x_max":1194,"o":"m 482 1245 q 429 1227 456 1225 q 235 1157 311 1198 q 164 28 -178 488 l 217 28 l 270 64 q 694 11 496 -13 q 1103 332 948 3 q 1187 804 1218 536 q 482 1245 972 1282 m 588 1016 q 1000 541 935 1005 l 899 562 q 588 1016 810 885 m 591 1021 q 519 269 223 589 q 482 998 -65 442 l 591 1021 m 764 663 q 641 716 511 332 l 764 663 m 854 389 q 516 275 1162 273 q 854 389 722 326 z "},"A":{"ha":758,"x_min":1,"x_max":745,"o":"m 369 1148 l 298 1025 l 216 779 l 138 731 l 104 648 l 113 562 q 18 342 58 451 l 1 97 q 123 9 58 26 l 211 97 l 289 372 l 492 412 q 480 148 446 132 l 544 -8 q 631 1096 898 535 l 649 1166 q 526 1253 570 1208 l 369 1148 m 376 616 l 450 792 l 492 625 l 376 616 z "},"B":{"ha":864,"x_min":5,"x_max":856,"o":"m 349 1258 q 146 1143 222 1219 l 146 1090 l 137 1028 q 66 657 137 814 q 84 524 42 585 l 84 489 l 66 454 q 49 365 65 403 l 49 294 l 40 268 l 40 206 l 22 136 q 5 73 9 105 q 367 20 184 -34 q 747 224 650 -8 q 703 736 973 518 q 756 1099 980 964 l 765 1125 q 349 1258 553 1257 m 358 984 q 517 754 675 994 q 332 719 410 720 l 332 745 l 340 772 l 340 798 l 340 825 l 349 887 q 358 984 350 944 m 570 542 q 544 330 618 425 q 288 259 459 176 q 305 489 238 312 l 332 498 l 358 507 q 570 542 477 507 z "},"C":{"ha":846,"x_min":2,"x_max":843,"o":"m 429 1258 q 318 1218 368 1230 q 66 224 -141 782 q 388 3 141 -26 q 750 214 658 -12 q 710 243 736 248 q 277 364 382 109 q 378 937 201 694 q 609 977 482 1056 q 629 866 590 909 l 700 857 q 579 1258 1039 1095 l 549 1258 l 429 1258 z "},"D":{"ha":894,"x_min":-6,"x_max":882,"o":"m 176 1252 q 125 1069 127 1160 q 151 1040 142 1062 l 142 935 l 134 772 l 117 618 q 100 493 102 541 q 75 301 69 388 q 1 243 26 277 q 1 52 -13 133 q 67 3 41 18 l 92 3 l 117 13 l 142 13 l 167 13 q 259 22 214 25 q 342 52 304 45 q 876 522 806 55 q 867 733 892 638 q 859 753 857 743 l 842 772 l 833 800 q 767 906 790 857 q 709 964 728 939 l 659 1031 q 542 1146 584 1083 q 467 1223 492 1179 l 434 1213 l 417 1223 q 176 1252 273 1261 m 364 945 q 664 445 699 827 q 306 397 507 194 q 322 522 307 470 l 322 551 q 339 685 339 629 l 347 714 l 347 743 l 347 772 l 355 791 l 364 945 z "},"E":{"ha":726,"x_min":1,"x_max":725,"o":"m 171 1230 q 115 1129 143 1166 l 106 1111 q 60 1038 75 1075 q 97 872 104 954 q 24 680 84 753 q 52 514 18 580 l 24 358 l 14 294 q 5 64 -7 156 q 180 45 94 33 l 208 45 q 529 -1 380 -15 q 566 110 564 58 q 456 239 488 165 l 382 248 q 235 284 296 275 l 235 312 l 244 330 l 244 358 l 262 431 l 281 496 l 309 496 l 327 505 l 400 505 q 547 505 488 517 q 575 744 890 629 l 529 725 l 501 725 l 400 744 l 309 762 l 309 789 l 317 808 l 327 973 l 355 983 l 391 991 l 465 991 q 676 1028 590 1023 q 557 1258 777 1179 l 501 1240 l 428 1240 l 400 1240 l 373 1230 l 355 1240 l 290 1249 l 262 1249 q 189 1258 219 1258 l 171 1230 z "},"F":{"ha":851,"x_min":1,"x_max":810,"o":"m 189 1258 q 121 918 93 1092 q 112 849 109 882 q 95 755 98 798 q 1 636 23 708 l 1 551 q 52 440 60 500 q 44 372 52 398 l 44 304 q 18 83 48 172 q 61 23 53 52 q 257 108 187 -54 q 300 492 218 322 l 325 492 l 393 474 l 427 474 l 453 466 l 478 457 l 623 440 q 751 414 692 417 q 777 543 795 479 q 717 636 748 603 q 418 943 109 700 l 478 943 l 530 935 q 648 909 597 913 l 760 883 q 810 943 782 924 q 768 1105 804 1038 l 683 1131 q 427 1181 532 1179 q 189 1258 312 1258 z "},"G":{"ha":874,"x_min":3,"x_max":846,"o":"m 481 1255 q 134 168 -247 869 l 256 65 q 622 75 453 -62 q 846 374 824 157 q 313 655 791 734 l 294 618 q 284 524 277 565 q 313 533 298 523 q 369 486 349 516 q 387 468 385 477 l 416 458 l 490 412 q 556 365 527 378 q 322 309 446 277 l 284 374 q 463 992 144 753 q 669 945 576 945 q 790 1048 747 992 q 481 1255 747 1267 z "},"H":{"ha":888,"x_min":4,"x_max":858,"o":"m 231 1255 q 144 1176 189 1202 q 126 1063 140 1109 l 126 1037 l 109 967 q 100 897 108 921 q 83 793 94 834 l 83 767 q 74 697 70 731 q 56 601 58 646 l 47 541 q 4 340 29 416 l 13 174 q 22 148 22 161 l 31 104 l 47 26 q 117 61 91 43 l 126 87 l 213 270 l 213 296 l 222 313 l 231 349 l 257 514 l 274 505 l 300 496 l 317 488 q 545 435 458 445 l 545 410 q 579 270 575 329 q 623 0 572 115 l 692 87 q 718 157 705 132 l 736 183 l 745 209 l 753 244 l 762 270 l 779 296 l 788 322 q 814 427 795 385 l 849 523 l 849 549 l 849 618 q 831 680 833 648 l 840 714 l 840 741 q 849 810 849 782 l 849 836 l 849 863 q 858 932 858 904 l 858 958 l 858 994 l 858 1019 l 858 1194 q 614 1115 687 1329 l 640 1080 l 649 1063 l 649 1010 l 640 985 q 605 645 652 791 l 545 654 l 484 662 l 466 671 l 439 671 l 378 697 l 292 732 l 292 767 q 309 854 307 815 q 317 924 317 895 l 326 941 l 326 967 l 335 1028 q 353 1211 362 1128 q 248 1255 302 1261 l 231 1255 z "},"I":{"ha":836,"x_min":5,"x_max":910,"o":"m 286 1255 q 204 1065 201 1175 q 241 965 231 1014 l 268 965 q 458 1010 371 1010 l 458 983 q 431 829 433 895 l 412 775 l 395 621 l 385 594 l 376 504 l 368 486 q 349 323 363 388 q 141 387 149 280 q 5 178 10 315 l 41 151 l 141 115 l 168 106 l 186 97 l 214 87 l 422 33 q 431 -3 433 18 l 503 6 l 566 16 q 729 33 663 8 q 756 115 748 77 q 566 296 625 191 l 575 332 l 575 368 l 585 414 l 585 441 l 593 477 l 602 504 l 602 540 l 612 576 l 621 675 l 629 712 l 629 739 l 639 757 l 666 938 q 910 1092 922 931 q 847 1192 877 1155 l 820 1200 l 720 1219 q 629 1219 670 1212 l 612 1227 l 585 1227 l 557 1227 l 530 1227 l 494 1236 q 286 1255 374 1230 z "},"J":{"ha":1034,"x_min":2,"x_max":1011,"o":"m 320 1243 l 159 1234 l 103 1215 q 207 968 105 1055 q 320 1006 276 970 q 472 1016 409 1022 q 245 230 456 559 q 169 220 197 228 q 75 363 121 311 l 8 372 q 273 3 -33 -1 l 339 12 q 358 31 349 29 l 377 50 l 434 88 q 500 155 466 132 l 576 306 l 585 334 l 595 353 l 633 486 l 661 562 l 661 590 l 671 609 l 690 684 l 699 703 q 746 978 750 865 q 1011 1120 947 970 q 898 1186 942 1155 q 746 1243 804 1211 l 718 1224 q 642 1234 673 1233 q 358 1253 473 1263 l 320 1243 z "},"K":{"ha":840,"x_min":2,"x_max":811,"o":"m 160 1194 q 142 1106 146 1143 l 142 1080 q 125 966 123 1016 q 108 869 109 915 q 28 789 52 833 l 46 711 q 55 570 10 634 l 46 508 l 37 490 l 28 438 l 20 368 q 2 227 22 286 q 28 86 26 142 l 46 7 q 90 42 73 2 l 108 60 l 117 77 l 134 86 q 178 174 151 138 l 186 200 q 239 315 214 270 q 283 499 245 418 l 301 465 l 319 447 l 336 420 l 345 394 q 415 297 391 342 l 441 235 q 494 165 475 199 l 503 139 q 609 24 574 80 l 627 16 l 679 -2 q 714 60 709 33 l 732 113 q 705 200 708 162 l 696 235 q 644 359 660 309 q 627 376 629 368 l 609 403 l 600 429 q 583 447 585 438 l 574 465 l 556 490 q 450 667 481 593 q 811 1001 743 745 q 433 895 592 1009 l 336 860 l 336 895 l 345 930 l 345 957 l 354 983 l 354 1010 l 380 1150 q 222 1256 315 1240 l 160 1194 z "},"L":{"ha":1034,"x_min":7,"x_max":1005,"o":"m 300 1217 q 271 1142 286 1168 l 281 1076 l 271 1057 q 224 888 255 956 l 215 822 l 177 728 q 64 417 152 540 q 7 286 44 342 q 55 98 2 178 q 74 3 61 43 l 186 69 q 309 60 257 73 l 337 60 l 384 50 l 412 50 q 544 32 487 31 l 667 13 l 704 13 l 723 3 q 949 22 852 33 l 1005 107 q 789 267 919 220 l 713 248 l 685 258 l 648 258 l 600 267 l 572 267 l 544 276 q 469 286 494 277 q 318 304 379 291 l 337 370 l 337 399 l 356 465 l 366 483 l 384 549 l 393 587 l 441 756 l 450 803 l 459 831 l 469 850 l 516 1010 l 516 1038 l 553 1189 q 366 1255 449 1241 l 300 1217 z "},"M":{"ha":1039,"x_min":0,"x_max":1050,"o":"m 911 1235 l 792 1143 q 718 1060 743 1094 q 562 857 656 928 q 350 1060 463 992 q 340 1171 350 1129 l 239 1244 q 92 1198 174 1166 q 37 1069 47 1135 q 83 913 90 987 l 83 885 q 74 811 70 847 l 55 692 q 37 572 52 621 q 0 351 37 446 l 9 286 q 28 222 24 252 l 64 56 l 83 65 l 129 121 l 165 166 l 175 194 l 184 222 l 239 332 l 258 461 l 258 498 l 267 517 l 276 600 l 276 627 l 276 654 l 286 682 q 304 811 289 758 q 442 507 429 675 q 488 425 476 465 l 525 433 q 543 452 534 450 l 617 581 l 635 590 l 654 600 l 663 618 l 682 627 q 746 701 715 672 q 728 535 746 600 l 728 507 q 709 268 693 378 l 690 212 l 709 10 l 746 1 q 976 839 1009 351 q 1004 958 1003 905 q 1050 1050 1035 1009 q 1040 1235 1030 1156 q 930 1253 981 1259 l 911 1235 z "},"N":{"ha":827,"x_min":5,"x_max":830,"o":"m 770 1291 q 745 1245 758 1244 l 721 1221 q 648 1139 694 1164 l 623 1099 l 615 1074 q 623 993 632 1044 l 607 903 l 599 879 l 591 838 l 583 814 l 583 789 l 566 724 q 534 594 540 648 l 517 618 q 493 684 506 659 l 420 887 q 444 1058 457 977 q 257 1090 350 1122 q 159 1001 193 1046 l 143 960 q 127 806 125 893 q 86 732 106 761 l 86 700 l 78 643 l 70 586 l 62 537 l 54 513 l 45 456 l 45 399 l 37 374 q 29 293 36 328 l 29 269 q 5 130 9 188 q 78 0 65 71 q 200 98 133 68 q 306 456 216 305 l 322 431 l 338 407 l 347 391 l 379 334 q 493 114 416 202 q 615 114 559 101 q 819 830 881 445 q 778 1253 853 1076 l 770 1253 l 778 1253 l 770 1291 z "},"O":{"ha":964,"x_min":1,"x_max":954,"o":"m 561 1253 q 541 1234 551 1236 l 512 1234 l 482 1234 q 326 1219 367 1166 l 288 1206 l 237 1076 l 217 1057 l 119 929 l 109 899 l 79 821 l 69 791 l 1 614 l 40 496 q 256 14 -32 158 q 364 5 314 -1 q 954 703 847 214 q 561 1253 927 1129 m 502 909 q 669 683 638 882 q 394 280 586 421 q 355 526 335 404 q 345 683 336 618 l 374 722 l 423 801 q 502 909 478 856 z "},"P":{"ha":918,"x_min":3,"x_max":879,"o":"m 175 1253 q 121 983 -18 1120 q 112 892 111 932 q 94 775 91 828 q 58 504 -64 652 l 49 459 q 3 296 50 366 q 274 342 104 -326 q 301 504 278 437 q 879 838 879 396 q 274 1217 801 1259 q 175 1253 235 1240 m 355 983 q 635 757 665 1008 q 319 711 488 649 l 328 739 l 328 784 l 337 811 l 337 838 l 337 865 l 355 983 z "},"Q":{"ha":1128,"x_min":3,"x_max":1096,"o":"m 569 1256 q 231 1046 361 1193 q 104 1037 163 1099 q 58 955 83 983 q 12 572 118 728 q 113 398 -26 383 q 304 52 151 175 q 697 52 518 -23 l 751 52 q 888 -3 810 -13 q 898 189 918 102 q 1071 508 1036 339 q 1025 964 1139 762 l 1025 1028 q 569 1256 839 1266 m 606 1037 q 880 462 920 989 q 798 380 836 408 l 715 544 q 569 480 629 527 q 515 425 530 454 q 606 252 583 336 q 332 498 311 179 q 606 1037 303 911 z "},"R":{"ha":800,"x_min":-11,"x_max":1093,"o":"m 253 1254 q 55 661 -35 1208 q -11 492 33 559 q 22 379 -5 422 l 31 351 l 31 219 q 39 12 41 94 q 55 -7 53 3 q 154 -16 105 -29 q 187 41 169 18 l 195 60 q 253 238 214 171 l 294 153 l 327 135 l 360 97 l 401 78 l 450 50 l 484 22 q 591 -35 549 -3 l 623 -54 l 656 -63 l 722 -110 l 747 -119 l 764 -138 l 788 -148 l 813 -157 l 945 -241 l 1052 -260 l 1093 -195 l 1093 -129 q 1077 -110 1079 -119 q 1060 -91 1062 -100 l 1044 -81 l 1019 -63 q 962 3 981 -31 q 887 68 913 31 l 871 78 l 854 87 l 805 125 l 755 144 l 739 163 l 722 172 q 583 276 635 212 l 566 285 l 549 294 l 500 332 q 376 473 418 393 l 335 511 q 706 1094 840 747 q 253 1254 480 1258 m 286 1015 q 261 842 517 956 l 261 867 l 286 1015 z "},"S":{"ha":968,"x_min":7,"x_max":948,"o":"m 635 1256 q 184 894 216 1214 q 688 522 242 610 q 732 434 729 483 q 440 248 599 296 q 281 178 355 193 q 263 169 272 168 q 95 98 169 116 q 7 19 35 61 q 918 319 608 -57 q 475 831 1071 707 q 405 903 430 865 q 732 1026 524 1058 q 635 1256 899 1250 z "},"T":{"ha":697,"x_min":-3,"x_max":671,"o":"m 293 1254 q -3 1004 69 1198 q 210 866 46 851 q 201 745 197 796 l 201 469 q 191 283 203 361 q 191 163 205 216 q 201 62 203 112 l 219 71 q 441 155 345 -98 l 441 229 l 431 293 l 441 321 l 441 385 l 450 441 q 468 653 476 567 l 468 681 q 505 921 511 810 q 671 1134 673 961 q 293 1254 495 1277 z "},"U":{"ha":945,"x_min":24,"x_max":928,"o":"m 684 1196 l 664 1139 l 644 1093 l 633 1045 l 613 998 l 593 950 l 583 903 l 572 836 q 532 732 545 783 q 460 552 517 623 q 440 439 463 486 q 339 458 385 395 l 309 505 l 309 533 l 309 571 q 319 704 323 650 l 319 799 l 329 988 l 329 1017 q 278 1177 283 1099 q 186 1234 235 1220 l 104 1139 q 38 629 -8 780 l 34 448 q 34 306 25 361 q 471 107 138 -46 l 567 -22 q 775 126 688 16 l 785 164 l 785 193 q 765 382 756 298 l 765 439 q 795 543 789 496 l 806 590 q 826 694 827 646 l 836 723 l 857 818 q 928 1149 932 1002 q 765 1234 873 1251 l 755 1263 l 684 1196 z "},"V":{"ha":828,"x_min":1,"x_max":804,"o":"m 157 1260 q 1 1141 47 1226 q 38 977 33 1084 l 28 777 l 28 475 q 38 238 60 342 q 102 47 98 139 q 284 10 191 -27 q 612 384 562 119 l 631 393 q 804 977 796 718 q 759 986 777 996 l 731 950 l 713 922 l 686 886 l 622 777 l 595 740 l 567 713 l 540 685 l 530 667 q 430 530 487 581 q 321 375 385 431 q 294 384 304 374 q 284 539 279 467 q 266 621 262 585 l 266 722 l 266 767 l 266 886 l 266 922 l 266 950 q 284 1215 289 1114 q 157 1260 220 1258 z "},"W":{"ha":1169,"x_min":-2,"x_max":1127,"o":"m 104 1256 q -2 1109 21 1194 q 63 956 9 1019 l 71 899 l 79 850 q 96 760 96 801 q 128 590 125 664 q 177 305 185 433 q 201 240 197 273 q 266 29 215 117 l 331 29 q 396 94 369 72 l 412 135 q 453 199 440 172 l 453 224 l 469 240 q 526 387 494 332 q 543 305 538 342 q 574 159 580 227 l 591 143 l 599 119 q 656 -12 639 42 q 1021 590 970 237 q 1086 915 1096 756 q 1127 1093 1124 1010 q 1029 996 1062 1052 l 1013 964 l 997 939 l 989 915 l 972 899 l 956 866 q 908 760 935 802 l 900 736 l 892 720 l 884 695 l 876 679 q 843 606 854 639 l 802 525 l 794 509 l 786 492 q 729 395 758 431 l 721 427 l 713 444 q 672 574 696 520 q 631 671 650 635 q 640 956 657 836 q 623 972 633 970 l 599 947 l 583 931 q 380 866 472 949 l 355 817 q 347 557 418 673 l 339 590 l 331 638 q 323 679 322 660 l 307 720 l 307 760 q 298 785 298 772 q 274 923 277 865 q 258 1004 258 970 l 250 1037 l 217 1223 q 104 1256 160 1259 z "},"X":{"ha":901,"x_min":5,"x_max":920,"o":"m 840 1253 q 808 1236 823 1240 q 790 1219 800 1222 l 778 1192 l 765 1175 l 753 1158 l 684 1054 l 666 1036 q 623 984 646 997 q 610 967 616 969 q 505 837 553 880 q 412 1002 441 906 q 337 1201 345 1088 q 231 1166 273 1194 q 176 949 163 1069 q 262 819 235 884 q 361 671 326 755 l 349 654 l 331 646 l 318 620 l 294 602 l 281 576 l 269 559 l 231 524 q 219 507 225 509 q 182 446 197 466 l 170 437 q 70 290 123 340 q 14 159 40 208 q 8 3 -1 70 q 89 73 52 55 l 107 108 l 132 125 l 163 159 l 182 177 l 207 212 l 231 229 q 300 298 264 278 q 405 429 347 384 q 473 515 437 484 l 479 490 l 492 481 l 572 325 q 579 307 580 316 q 641 229 620 273 l 660 212 l 666 195 q 703 151 690 179 q 759 99 737 129 l 814 99 l 814 151 l 790 212 l 790 238 l 778 255 l 771 281 l 759 307 l 753 333 q 715 437 727 392 l 703 446 l 697 472 l 684 481 l 678 507 l 666 515 l 660 542 q 610 628 626 583 l 597 637 l 597 663 l 623 680 l 647 707 l 672 750 q 722 802 703 777 l 741 828 l 759 845 q 821 932 790 903 l 827 949 l 840 967 l 852 975 q 914 1071 884 1034 l 908 1097 q 920 1210 924 1161 q 840 1253 881 1249 z "},"Y":{"ha":805,"x_min":4,"x_max":794,"o":"m 180 1236 q 4 1086 60 1177 l 13 1042 l 39 1042 q 57 1025 54 1034 l 83 1008 l 100 990 l 127 972 l 144 955 l 162 928 q 267 841 233 886 q 276 744 262 785 q 338 630 319 682 l 329 604 q 302 498 319 537 q 250 296 292 378 l 258 191 q 311 33 249 91 q 347 16 317 -33 l 364 33 l 373 51 l 399 112 l 416 121 q 478 227 447 189 l 496 314 l 557 507 l 557 604 q 583 726 580 674 q 601 850 602 796 q 794 1183 773 996 q 434 999 601 1240 q 224 1244 281 1100 l 189 1253 l 180 1236 z "},"Z":{"ha":874,"x_min":1,"x_max":899,"o":"m 305 1256 q 215 984 137 1152 q 231 1000 230 991 l 256 984 q 273 968 270 976 q 503 844 427 911 l 479 827 l 462 795 l 437 762 l 412 736 l 388 704 l 372 679 l 347 663 q 330 646 338 648 l 305 613 l 256 572 q 174 473 210 506 l 157 440 q 116 358 137 390 q 1 119 78 212 l 1 86 q 66 3 28 32 q 239 77 171 23 l 256 69 l 289 69 q 479 45 404 47 q 825 3 667 -20 q 899 102 880 48 l 882 111 l 865 119 l 857 135 q 759 184 793 156 l 734 193 l 701 201 l 635 226 l 610 234 l 577 242 l 561 251 q 536 242 549 241 l 519 251 l 503 259 l 372 283 l 372 309 q 660 654 473 536 l 668 671 l 684 679 l 692 696 l 709 704 q 767 770 739 744 q 841 811 810 781 q 882 902 854 865 q 561 1124 774 1099 q 305 1256 441 1236 z "},"[":{"ha":634,"x_min":9,"x_max":636,"o":"m 125 1258 q 39 1139 99 1179 l 39 627 l 22 593 q 22 81 -3 286 l 74 13 l 125 -4 q 517 64 327 71 q 636 218 642 94 l 551 303 q 227 286 360 268 l 261 422 l 261 712 l 261 764 l 261 968 q 619 1139 549 920 l 585 1190 q 125 1258 295 1200 z "},"\\":{"ha":1023,"x_min":6,"x_max":1026,"o":"m 6 1276 l 6 1219 q 100 1011 80 1095 q 214 803 186 899 l 271 747 l 290 671 q 422 463 387 568 q 459 406 452 439 q 497 369 492 387 q 591 218 564 285 q 819 -66 754 75 l 932 -85 q 1026 104 1000 20 l 988 142 q 894 274 922 214 q 686 557 748 422 l 648 576 l 629 633 l 535 747 l 516 803 l 497 841 l 422 954 q 252 1313 302 1162 q 119 1351 176 1355 l 6 1276 z "},"]":{"ha":743,"x_min":5,"x_max":750,"o":"m 204 1260 q 41 1098 73 1204 q 492 989 260 930 l 492 485 q 511 269 511 357 q 5 88 125 353 l 132 16 l 168 34 l 222 16 l 276 16 l 330 16 l 456 16 l 654 -2 l 673 34 l 709 160 l 709 214 q 745 593 766 425 l 745 647 l 745 701 q 727 1152 709 981 q 204 1260 460 1265 z "},"^":{"ha":709,"x_min":7,"x_max":696,"o":"m 271 1215 l 182 1098 l 168 1055 l 139 1025 q 95 907 117 949 q 7 747 33 811 q 182 673 102 687 l 330 981 l 344 951 q 476 776 438 869 q 637 629 574 701 l 696 629 q 344 1259 669 991 l 271 1215 z "},"_":{"ha":882,"x_min":3,"x_max":878,"o":"m 32 1 q 32 -208 -25 -113 l 106 -208 l 180 -208 l 255 -208 l 299 -208 q 477 -222 408 -227 l 522 -208 l 566 -208 l 863 -208 q 878 -14 879 -95 l 819 -14 l 774 -14 q 656 1 714 7 l 507 1 l 477 -14 l 433 -14 l 389 -14 l 270 -14 q 32 1 132 -16 z "},"`":{"ha":481,"x_min":2,"x_max":473,"o":"m 2 1108 q 39 1072 35 1090 l 76 1034 l 95 923 q 299 682 229 804 q 447 663 387 693 q 151 1257 566 1000 l 2 1108 z "},"a":{"ha":758,"x_min":1,"x_max":745,"o":"m 369 1148 l 298 1025 l 216 779 l 138 731 l 104 648 l 113 562 q 18 342 58 451 l 1 97 q 123 9 58 26 l 211 97 l 289 372 l 492 412 q 480 148 446 132 l 544 -8 q 631 1096 898 535 l 649 1166 q 526 1253 570 1208 l 369 1148 m 376 616 l 450 792 l 492 625 l 376 616 z "},"b":{"ha":864,"x_min":5,"x_max":856,"o":"m 349 1258 q 146 1143 222 1219 l 146 1090 l 137 1028 q 66 657 137 814 q 84 524 42 585 l 84 489 l 66 454 q 49 365 65 403 l 49 294 l 40 268 l 40 206 l 22 136 q 5 73 9 105 q 367 20 184 -34 q 747 224 650 -8 q 703 736 973 518 q 756 1099 980 964 l 765 1125 q 349 1258 553 1257 m 358 984 q 517 754 675 994 q 332 719 410 720 l 332 745 l 340 772 l 340 798 l 340 825 l 349 887 q 358 984 350 944 m 570 542 q 544 330 618 425 q 288 259 459 176 q 305 489 238 312 l 332 498 l 358 507 q 570 542 477 507 z "},"c":{"ha":846,"x_min":2,"x_max":843,"o":"m 429 1258 q 318 1218 368 1230 q 66 224 -141 782 q 388 3 141 -26 q 750 214 658 -12 q 710 243 736 248 q 277 364 382 109 q 378 937 201 694 q 609 977 482 1056 q 629 866 590 909 l 700 857 q 579 1258 1039 1095 l 549 1258 l 429 1258 z "},"d":{"ha":894,"x_min":-6,"x_max":882,"o":"m 176 1252 q 125 1069 127 1160 q 151 1040 142 1062 l 142 935 l 134 772 l 117 618 q 100 493 102 541 q 75 301 69 388 q 1 243 26 277 q 1 52 -13 133 q 67 3 41 18 l 92 3 l 117 13 l 142 13 l 167 13 q 259 22 214 25 q 342 52 304 45 q 876 522 806 55 q 867 733 892 638 q 859 753 857 743 l 842 772 l 833 800 q 767 906 790 857 q 709 964 728 939 l 659 1031 q 542 1146 584 1083 q 467 1223 492 1179 l 434 1213 l 417 1223 q 176 1252 273 1261 m 364 945 q 664 445 699 827 q 306 397 507 194 q 322 522 307 470 l 322 551 q 339 685 339 629 l 347 714 l 347 743 l 347 772 l 355 791 l 364 945 z "},"e":{"ha":726,"x_min":1,"x_max":725,"o":"m 171 1230 q 115 1129 143 1166 l 106 1111 q 60 1038 75 1075 q 97 872 104 954 q 24 680 84 753 q 52 514 18 580 l 24 358 l 14 294 q 5 64 -7 156 q 180 45 94 33 l 208 45 q 529 -1 380 -15 q 566 110 564 58 q 456 239 488 165 l 382 248 q 235 284 296 275 l 235 312 l 244 330 l 244 358 l 262 431 l 281 496 l 309 496 l 327 505 l 400 505 q 547 505 488 517 q 575 744 890 629 l 529 725 l 501 725 l 400 744 l 309 762 l 309 789 l 317 808 l 327 973 l 355 983 l 391 991 l 465 991 q 676 1028 590 1023 q 557 1258 777 1179 l 501 1240 l 428 1240 l 400 1240 l 373 1230 l 355 1240 l 290 1249 l 262 1249 q 189 1258 219 1258 l 171 1230 z "},"f":{"ha":851,"x_min":1,"x_max":810,"o":"m 189 1258 q 121 918 93 1092 q 112 849 109 882 q 95 755 98 798 q 1 636 23 708 l 1 551 q 52 440 60 500 q 44 372 52 398 l 44 304 q 18 83 48 172 q 61 23 53 52 q 257 108 187 -54 q 300 492 218 322 l 325 492 l 393 474 l 427 474 l 453 466 l 478 457 l 623 440 q 751 414 692 417 q 777 543 795 479 q 717 636 748 603 q 418 943 109 700 l 478 943 l 530 935 q 648 909 597 913 l 760 883 q 810 943 782 924 q 768 1105 804 1038 l 683 1131 q 427 1181 532 1179 q 189 1258 312 1258 z "},"g":{"ha":874,"x_min":3,"x_max":846,"o":"m 481 1255 q 134 168 -247 869 l 256 65 q 622 75 453 -62 q 846 374 824 157 q 313 655 791 734 l 294 618 q 284 524 277 565 q 313 533 298 523 q 369 486 349 516 q 387 468 385 477 l 416 458 l 490 412 q 556 365 527 378 q 322 309 446 277 l 284 374 q 463 992 144 753 q 669 945 576 945 q 790 1048 747 992 q 481 1255 747 1267 z "},"h":{"ha":888,"x_min":4,"x_max":858,"o":"m 231 1255 q 144 1176 189 1202 q 126 1063 140 1109 l 126 1037 l 109 967 q 100 897 108 921 q 83 793 94 834 l 83 767 q 74 697 70 731 q 56 601 58 646 l 47 541 q 4 340 29 416 l 13 174 q 22 148 22 161 l 31 104 l 47 26 q 117 61 91 43 l 126 87 l 213 270 l 213 296 l 222 313 l 231 349 l 257 514 l 274 505 l 300 496 l 317 488 q 545 435 458 445 l 545 410 q 579 270 575 329 q 623 0 572 115 l 692 87 q 718 157 705 132 l 736 183 l 745 209 l 753 244 l 762 270 l 779 296 l 788 322 q 814 427 795 385 l 849 523 l 849 549 l 849 618 q 831 680 833 648 l 840 714 l 840 741 q 849 810 849 782 l 849 836 l 849 863 q 858 932 858 904 l 858 958 l 858 994 l 858 1019 l 858 1194 q 614 1115 687 1329 l 640 1080 l 649 1063 l 649 1010 l 640 985 q 605 645 652 791 l 545 654 l 484 662 l 466 671 l 439 671 l 378 697 l 292 732 l 292 767 q 309 854 307 815 q 317 924 317 895 l 326 941 l 326 967 l 335 1028 q 353 1211 362 1128 q 248 1255 302 1261 l 231 1255 z "},"i":{"ha":836,"x_min":5,"x_max":910,"o":"m 286 1255 q 204 1065 201 1175 q 241 965 231 1014 l 268 965 q 458 1010 371 1010 l 458 983 q 431 829 433 895 l 412 775 l 395 621 l 385 594 l 376 504 l 368 486 q 349 323 363 388 q 141 387 149 280 q 5 178 10 315 l 41 151 l 141 115 l 168 106 l 186 97 l 214 87 l 422 33 q 431 -3 433 18 l 503 6 l 566 16 q 729 33 663 8 q 756 115 748 77 q 566 296 625 191 l 575 332 l 575 368 l 585 414 l 585 441 l 593 477 l 602 504 l 602 540 l 612 576 l 621 675 l 629 712 l 629 739 l 639 757 l 666 938 q 910 1092 922 931 q 847 1192 877 1155 l 820 1200 l 720 1219 q 629 1219 670 1212 l 612 1227 l 585 1227 l 557 1227 l 530 1227 l 494 1236 q 286 1255 374 1230 z "},"j":{"ha":1034,"x_min":2,"x_max":1011,"o":"m 320 1243 l 159 1234 l 103 1215 q 207 968 105 1055 q 320 1006 276 970 q 472 1016 409 1022 q 245 230 456 559 q 169 220 197 228 q 75 363 121 311 l 8 372 q 273 3 -33 -1 l 339 12 q 358 31 349 29 l 377 50 l 434 88 q 500 155 466 132 l 576 306 l 585 334 l 595 353 l 633 486 l 661 562 l 661 590 l 671 609 l 690 684 l 699 703 q 746 978 750 865 q 1011 1120 947 970 q 898 1186 942 1155 q 746 1243 804 1211 l 718 1224 q 642 1234 673 1233 q 358 1253 473 1263 l 320 1243 z "},"k":{"ha":840,"x_min":2,"x_max":811,"o":"m 160 1194 q 142 1106 146 1143 l 142 1080 q 125 966 123 1016 q 108 869 109 915 q 28 789 52 833 l 46 711 q 55 570 10 634 l 46 508 l 37 490 l 28 438 l 20 368 q 2 227 22 286 q 28 86 26 142 l 46 7 q 90 42 73 2 l 108 60 l 117 77 l 134 86 q 178 174 151 138 l 186 200 q 239 315 214 270 q 283 499 245 418 l 301 465 l 319 447 l 336 420 l 345 394 q 415 297 391 342 l 441 235 q 494 165 475 199 l 503 139 q 609 24 574 80 l 627 16 l 679 -2 q 714 60 709 33 l 732 113 q 705 200 708 162 l 696 235 q 644 359 660 309 q 627 376 629 368 l 609 403 l 600 429 q 583 447 585 438 l 574 465 l 556 490 q 450 667 481 593 q 811 1001 743 745 q 433 895 592 1009 l 336 860 l 336 895 l 345 930 l 345 957 l 354 983 l 354 1010 l 380 1150 q 222 1256 315 1240 l 160 1194 z "},"l":{"ha":1034,"x_min":7,"x_max":1005,"o":"m 300 1217 q 271 1142 286 1168 l 281 1076 l 271 1057 q 224 888 255 956 l 215 822 l 177 728 q 64 417 152 540 q 7 286 44 342 q 55 98 2 178 q 74 3 61 43 l 186 69 q 309 60 257 73 l 337 60 l 384 50 l 412 50 q 544 32 487 31 l 667 13 l 704 13 l 723 3 q 949 22 852 33 l 1005 107 q 789 267 919 220 l 713 248 l 685 258 l 648 258 l 600 267 l 572 267 l 544 276 q 469 286 494 277 q 318 304 379 291 l 337 370 l 337 399 l 356 465 l 366 483 l 384 549 l 393 587 l 441 756 l 450 803 l 459 831 l 469 850 l 516 1010 l 516 1038 l 553 1189 q 366 1255 449 1241 l 300 1217 z "},"m":{"ha":1039,"x_min":0,"x_max":1050,"o":"m 911 1235 l 792 1143 q 718 1060 743 1094 q 562 857 656 928 q 350 1060 463 992 q 340 1171 350 1129 l 239 1244 q 92 1198 174 1166 q 37 1069 47 1135 q 83 913 90 987 l 83 885 q 74 811 70 847 l 55 692 q 37 572 52 621 q 0 351 37 446 l 9 286 q 28 222 24 252 l 64 56 l 83 65 l 129 121 l 165 166 l 175 194 l 184 222 l 239 332 l 258 461 l 258 498 l 267 517 l 276 600 l 276 627 l 276 654 l 286 682 q 304 811 289 758 q 442 507 429 675 q 488 425 476 465 l 525 433 q 543 452 534 450 l 617 581 l 635 590 l 654 600 l 663 618 l 682 627 q 746 701 715 672 q 728 535 746 600 l 728 507 q 709 268 693 378 l 690 212 l 709 10 l 746 1 q 976 839 1009 351 q 1004 958 1003 905 q 1050 1050 1035 1009 q 1040 1235 1030 1156 q 930 1253 981 1259 l 911 1235 z "},"n":{"ha":827,"x_min":5,"x_max":830,"o":"m 770 1291 q 745 1245 758 1244 l 721 1221 q 648 1139 694 1164 l 623 1099 l 615 1074 q 623 993 632 1044 l 607 903 l 599 879 l 591 838 l 583 814 l 583 789 l 566 724 q 534 594 540 648 l 517 618 q 493 684 506 659 l 420 887 q 444 1058 457 977 q 257 1090 350 1122 q 159 1001 193 1046 l 143 960 q 127 806 125 893 q 86 732 106 761 l 86 700 l 78 643 l 70 586 l 62 537 l 54 513 l 45 456 l 45 399 l 37 374 q 29 293 36 328 l 29 269 q 5 130 9 188 q 78 0 65 71 q 200 98 133 68 q 306 456 216 305 l 322 431 l 338 407 l 347 391 l 379 334 q 493 114 416 202 q 615 114 559 101 q 819 830 881 445 q 778 1253 853 1076 l 770 1253 l 778 1253 l 770 1291 z "},"o":{"ha":964,"x_min":1,"x_max":954,"o":"m 561 1253 q 541 1234 551 1236 l 512 1234 l 482 1234 q 326 1219 367 1166 l 288 1206 l 237 1076 l 217 1057 l 119 929 l 109 899 l 79 821 l 69 791 l 1 614 l 40 496 q 256 14 -32 158 q 364 5 314 -1 q 954 703 847 214 q 561 1253 927 1129 m 502 909 q 669 683 638 882 q 394 280 586 421 q 355 526 335 404 q 345 683 336 618 l 374 722 l 423 801 q 502 909 478 856 z "},"p":{"ha":918,"x_min":3,"x_max":879,"o":"m 175 1253 q 121 983 -18 1120 q 112 892 111 932 q 94 775 91 828 q 58 504 -64 652 l 49 459 q 3 296 50 366 q 274 342 104 -326 q 301 504 278 437 q 879 838 879 396 q 274 1217 801 1259 q 175 1253 235 1240 m 355 983 q 635 757 665 1008 q 319 711 488 649 l 328 739 l 328 784 l 337 811 l 337 838 l 337 865 l 355 983 z "},"q":{"ha":1128,"x_min":3,"x_max":1096,"o":"m 569 1256 q 231 1046 361 1193 q 104 1037 163 1099 q 58 955 83 983 q 12 572 118 728 q 113 398 -26 383 q 304 52 151 175 q 697 52 518 -23 l 751 52 q 888 -3 810 -13 q 898 189 918 102 q 1071 508 1036 339 q 1025 964 1139 762 l 1025 1028 q 569 1256 839 1266 m 606 1037 q 880 462 920 989 q 798 380 836 408 l 715 544 q 569 480 629 527 q 515 425 530 454 q 606 252 583 336 q 332 498 311 179 q 606 1037 303 911 z "},"r":{"ha":800,"x_min":-11,"x_max":1093,"o":"m 253 1254 q 55 661 -35 1208 q -11 492 33 559 q 22 379 -5 422 l 31 351 l 31 219 q 39 12 41 94 q 55 -7 53 3 q 154 -16 105 -29 q 187 41 169 18 l 195 60 q 253 238 214 171 l 294 153 l 327 135 l 360 97 l 401 78 l 450 50 l 484 22 q 591 -35 549 -3 l 623 -54 l 656 -63 l 722 -110 l 747 -119 l 764 -138 l 788 -148 l 813 -157 l 945 -241 l 1052 -260 l 1093 -195 l 1093 -129 q 1077 -110 1079 -119 q 1060 -91 1062 -100 l 1044 -81 l 1019 -63 q 962 3 981 -31 q 887 68 913 31 l 871 78 l 854 87 l 805 125 l 755 144 l 739 163 l 722 172 q 583 276 635 212 l 566 285 l 549 294 l 500 332 q 376 473 418 393 l 335 511 q 706 1094 840 747 q 253 1254 480 1258 m 286 1015 q 261 842 517 956 l 261 867 l 286 1015 z "},"s":{"ha":968,"x_min":7,"x_max":948,"o":"m 635 1256 q 184 894 216 1214 q 688 522 242 610 q 732 434 729 483 q 440 248 599 296 q 281 178 355 193 q 263 169 272 168 q 95 98 169 116 q 7 19 35 61 q 918 319 608 -57 q 475 831 1071 707 q 405 903 430 865 q 732 1026 524 1058 q 635 1256 899 1250 z "},"t":{"ha":697,"x_min":-3,"x_max":671,"o":"m 293 1254 q -3 1004 69 1198 q 210 866 46 851 q 201 745 197 796 l 201 469 q 191 283 203 361 q 191 163 205 216 q 201 62 203 112 l 219 71 q 441 155 345 -98 l 441 229 l 431 293 l 441 321 l 441 385 l 450 441 q 468 653 476 567 l 468 681 q 505 921 511 810 q 671 1134 673 961 q 293 1254 495 1277 z "},"u":{"ha":945,"x_min":24,"x_max":928,"o":"m 684 1196 l 664 1139 l 644 1093 l 633 1045 l 613 998 l 593 950 l 583 903 l 572 836 q 532 732 545 783 q 460 552 517 623 q 440 439 463 486 q 339 458 385 395 l 309 505 l 309 533 l 309 571 q 319 704 323 650 l 319 799 l 329 988 l 329 1017 q 278 1177 283 1099 q 186 1234 235 1220 l 104 1139 q 38 629 -8 780 l 34 448 q 34 306 25 361 q 471 107 138 -46 l 567 -22 q 775 126 688 16 l 785 164 l 785 193 q 765 382 756 298 l 765 439 q 795 543 789 496 l 806 590 q 826 694 827 646 l 836 723 l 857 818 q 928 1149 932 1002 q 765 1234 873 1251 l 755 1263 l 684 1196 z "},"v":{"ha":828,"x_min":1,"x_max":804,"o":"m 157 1260 q 1 1141 47 1226 q 38 977 33 1084 l 28 777 l 28 475 q 38 238 60 342 q 102 47 98 139 q 284 10 191 -27 q 612 384 562 119 l 631 393 q 804 977 796 718 q 759 986 777 996 l 731 950 l 713 922 l 686 886 l 622 777 l 595 740 l 567 713 l 540 685 l 530 667 q 430 530 487 581 q 321 375 385 431 q 294 384 304 374 q 284 539 279 467 q 266 621 262 585 l 266 722 l 266 767 l 266 886 l 266 922 l 266 950 q 284 1215 289 1114 q 157 1260 220 1258 z "},"w":{"ha":1169,"x_min":-2,"x_max":1127,"o":"m 104 1256 q -2 1109 21 1194 q 63 956 9 1019 l 71 899 l 79 850 q 96 760 96 801 q 128 590 125 664 q 177 305 185 433 q 201 240 197 273 q 266 29 215 117 l 331 29 q 396 94 369 72 l 412 135 q 453 199 440 172 l 453 224 l 469 240 q 526 387 494 332 q 543 305 538 342 q 574 159 580 227 l 591 143 l 599 119 q 656 -12 639 42 q 1021 590 970 237 q 1086 915 1096 756 q 1127 1093 1124 1010 q 1029 996 1062 1052 l 1013 964 l 997 939 l 989 915 l 972 899 l 956 866 q 908 760 935 802 l 900 736 l 892 720 l 884 695 l 876 679 q 843 606 854 639 l 802 525 l 794 509 l 786 492 q 729 395 758 431 l 721 427 l 713 444 q 672 574 696 520 q 631 671 650 635 q 640 956 657 836 q 623 972 633 970 l 599 947 l 583 931 q 380 866 472 949 l 355 817 q 347 557 418 673 l 339 590 l 331 638 q 323 679 322 660 l 307 720 l 307 760 q 298 785 298 772 q 274 923 277 865 q 258 1004 258 970 l 250 1037 l 217 1223 q 104 1256 160 1259 z "},"x":{"ha":901,"x_min":5,"x_max":920,"o":"m 840 1253 q 808 1236 823 1240 q 790 1219 800 1222 l 778 1192 l 765 1175 l 753 1158 l 684 1054 l 666 1036 q 623 984 646 997 q 610 967 616 969 q 505 837 553 880 q 412 1002 441 906 q 337 1201 345 1088 q 231 1166 273 1194 q 176 949 163 1069 q 262 819 235 884 q 361 671 326 755 l 349 654 l 331 646 l 318 620 l 294 602 l 281 576 l 269 559 l 231 524 q 219 507 225 509 q 182 446 197 466 l 170 437 q 70 290 123 340 q 14 159 40 208 q 8 3 -1 70 q 89 73 52 55 l 107 108 l 132 125 l 163 159 l 182 177 l 207 212 l 231 229 q 300 298 264 278 q 405 429 347 384 q 473 515 437 484 l 479 490 l 492 481 l 572 325 q 579 307 580 316 q 641 229 620 273 l 660 212 l 666 195 q 703 151 690 179 q 759 99 737 129 l 814 99 l 814 151 l 790 212 l 790 238 l 778 255 l 771 281 l 759 307 l 753 333 q 715 437 727 392 l 703 446 l 697 472 l 684 481 l 678 507 l 666 515 l 660 542 q 610 628 626 583 l 597 637 l 597 663 l 623 680 l 647 707 l 672 750 q 722 802 703 777 l 741 828 l 759 845 q 821 932 790 903 l 827 949 l 840 967 l 852 975 q 914 1071 884 1034 l 908 1097 q 920 1210 924 1161 q 840 1253 881 1249 z "},"y":{"ha":805,"x_min":4,"x_max":794,"o":"m 180 1236 q 4 1086 60 1177 l 13 1042 l 39 1042 q 57 1025 54 1034 l 83 1008 l 100 990 l 127 972 l 144 955 l 162 928 q 267 841 233 886 q 276 744 262 785 q 338 630 319 682 l 329 604 q 302 498 319 537 q 250 296 292 378 l 258 191 q 311 33 249 91 q 347 16 317 -33 l 364 33 l 373 51 l 399 112 l 416 121 q 478 227 447 189 l 496 314 l 557 507 l 557 604 q 583 726 580 674 q 601 850 602 796 q 794 1183 773 996 q 434 999 601 1240 q 224 1244 281 1100 l 189 1253 l 180 1236 z "},"z":{"ha":874,"x_min":1,"x_max":899,"o":"m 305 1256 q 215 984 137 1152 q 231 1000 230 991 l 256 984 q 273 968 270 976 q 503 844 427 911 l 479 827 l 462 795 l 437 762 l 412 736 l 388 704 l 372 679 l 347 663 q 330 646 338 648 l 305 613 l 256 572 q 174 473 210 506 l 157 440 q 116 358 137 390 q 1 119 78 212 l 1 86 q 66 3 28 32 q 239 77 171 23 l 256 69 l 289 69 q 479 45 404 47 q 825 3 667 -20 q 899 102 880 48 l 882 111 l 865 119 l 857 135 q 759 184 793 156 l 734 193 l 701 201 l 635 226 l 610 234 l 577 242 l 561 251 q 536 242 549 241 l 519 251 l 503 259 l 372 283 l 372 309 q 660 654 473 536 l 668 671 l 684 679 l 692 696 l 709 704 q 767 770 739 744 q 841 811 810 781 q 882 902 854 865 q 561 1124 774 1099 q 305 1256 441 1236 z "},"{":{"ha":506,"x_min":1,"x_max":488,"o":"m 427 1261 q 86 767 62 1122 l 1 699 q 69 511 47 599 q 461 0 25 54 q 461 205 486 129 q 291 528 290 333 l 222 614 q 359 955 348 780 q 427 1261 578 1124 z "},"|":{"ha":332,"x_min":28,"x_max":313,"o":"m 83 1218 l 83 1130 l 66 1095 l 48 707 l 31 654 l 31 549 q 31 92 27 269 l 119 3 q 260 109 212 50 l 277 214 l 277 444 l 260 532 l 277 585 l 277 654 l 277 707 l 295 831 l 313 1218 q 136 1253 212 1253 l 83 1218 z "},"}":{"ha":532,"x_min":27,"x_max":508,"o":"m 52 1251 q 52 1048 33 1126 q 221 728 218 918 l 288 627 q 153 289 153 462 q 35 2 -3 168 q 238 36 163 13 q 407 475 397 247 q 508 543 467 504 q 52 1251 453 1195 z "},"~":{"ha":847,"x_min":5,"x_max":842,"o":"m 163 1254 q 24 973 -49 1145 q 205 1072 155 954 q 318 1057 279 1070 q 696 903 503 918 q 794 1142 928 1054 q 654 1114 706 1198 q 163 1254 402 1253 z "}}}
